# WaveFront *.obj file (generated by Autodesk ATF)

mtllib glass.mtl

g Body1

v -1.900000 -0.000000 -7.400000
v -1.855579 0.408444 -7.400000
v -1.724393 0.797789 -7.400000
v -1.512577 1.149831 -7.400000
v -1.230034 1.448108 -7.400000
v -0.889976 1.678673 -7.400000
v -0.508304 1.830745 -7.400000
v -0.102864 1.897213 -7.400000
v 0.307386 1.874970 -7.400000
v 0.703262 1.765056 -7.400000
v 1.066255 1.572609 -7.400000
v 1.379391 1.306629 -7.400000
v 1.628029 0.979552 -7.400000
v 1.800541 0.606673 -7.400000
v 1.888862 0.205426 -7.400000
v 1.888862 -0.205426 -7.400000
v 1.800541 -0.606673 -7.400000
v 1.628029 -0.979552 -7.400000
v 1.379391 -1.306629 -7.400000
v 1.066255 -1.572609 -7.400000
v 0.703262 -1.765056 -7.400000
v 0.307386 -1.874970 -7.400000
v -0.102864 -1.897213 -7.400000
v -0.508304 -1.830745 -7.400000
v -0.889976 -1.678673 -7.400000
v -1.230034 -1.448108 -7.400000
v -1.512577 -1.149831 -7.400000
v -1.724393 -0.797789 -7.400000
v -1.855579 -0.408444 -7.400000
v -1.900000 -0.000000 -7.500000
v -1.855579 0.408444 -7.500000
v -1.724393 0.797789 -7.500000
v -1.512577 1.149831 -7.500000
v -1.230034 1.448108 -7.500000
v -0.889976 1.678673 -7.500000
v -0.508304 1.830745 -7.500000
v -0.102864 1.897213 -7.500000
v 0.307386 1.874970 -7.500000
v 0.703262 1.765056 -7.500000
v 1.066255 1.572609 -7.500000
v 1.379391 1.306629 -7.500000
v 1.628029 0.979552 -7.500000
v 1.800541 0.606673 -7.500000
v 1.888862 0.205426 -7.500000
v 1.888862 -0.205426 -7.500000
v 1.800541 -0.606673 -7.500000
v 1.628029 -0.979552 -7.500000
v 1.379391 -1.306629 -7.500000
v 1.066255 -1.572609 -7.500000
v 0.703262 -1.765056 -7.500000
v 0.307386 -1.874970 -7.500000
v -0.102864 -1.897213 -7.500000
v -0.508304 -1.830745 -7.500000
v -0.889976 -1.678673 -7.500000
v -1.230034 -1.448108 -7.500000
v -1.512577 -1.149831 -7.500000
v -1.724393 -0.797789 -7.500000
v -1.855579 -0.408444 -7.500000
v -1.800000 -0.000000 -7.300000
v -1.757917 0.386947 -7.300000
v -1.633636 0.755800 -7.300000
v -1.432968 1.089314 -7.300000
v -1.165295 1.371892 -7.300000
v -0.843135 1.590322 -7.300000
v -0.481551 1.734390 -7.300000
v -0.097450 1.797360 -7.300000
v 0.291208 1.776288 -7.300000
v 0.666249 1.672158 -7.300000
v 1.010137 1.489840 -7.300000
v 1.306792 1.237859 -7.300000
v 1.542343 0.927997 -7.300000
v 1.705776 0.574743 -7.300000
v 1.789448 0.194614 -7.300000
v 1.789448 -0.194614 -7.300000
v 1.705776 -0.574743 -7.300000
v 1.542343 -0.927997 -7.300000
v 1.306792 -1.237859 -7.300000
v 1.010137 -1.489840 -7.300000
v 0.666249 -1.672158 -7.300000
v 0.291208 -1.776288 -7.300000
v -0.097450 -1.797360 -7.300000
v -0.481551 -1.734390 -7.300000
v -0.843135 -1.590322 -7.300000
v -1.165295 -1.371892 -7.300000
v -1.432968 -1.089314 -7.300000
v -1.633636 -0.755800 -7.300000
v -1.757917 -0.386947 -7.300000
v -1.800000 -0.000000 -6.985786
v -1.757917 -0.386947 -6.985786
v -1.633636 -0.755800 -6.985786
v -1.432968 -1.089314 -6.985786
v -1.165295 -1.371892 -6.985786
v -0.843135 -1.590322 -6.985786
v -0.481551 -1.734390 -6.985786
v -0.097450 -1.797360 -6.985786
v 0.291208 -1.776288 -6.985786
v 0.666249 -1.672158 -6.985786
v 1.010137 -1.489840 -6.985786
v 1.306792 -1.237859 -6.985786
v 1.542343 -0.927997 -6.985786
v 1.705776 -0.574743 -6.985786
v 1.789448 -0.194614 -6.985786
v 1.789448 0.194614 -6.985786
v 1.705776 0.574743 -6.985786
v 1.542343 0.927997 -6.985786
v 1.306792 1.237859 -6.985786
v 1.010137 1.489840 -6.985786
v 0.666249 1.672158 -6.985786
v 0.291208 1.776288 -6.985786
v -0.097450 1.797360 -6.985786
v -0.481551 1.734390 -6.985786
v -0.843135 1.590322 -6.985786
v -1.165295 1.371892 -6.985786
v -1.432968 1.089314 -6.985786
v -1.633636 0.755800 -6.985786
v -1.757917 0.386947 -6.985786
v -2.797969 -0.000000 0.000000
v -2.753005 -0.499597 0.000000
v -2.619557 -0.983136 0.000000
v -2.401914 -1.435077 0.000000
v -2.107071 -1.840892 0.000000
v -1.744505 -2.187541 0.000000
v -1.325870 -2.463879 0.000000
v -0.864620 -2.661027 0.000000
v -0.375581 -2.772647 0.000000
v 0.125530 -2.795152 0.000000
v 0.622607 -2.727819 0.000000
v 1.099672 -2.572811 0.000000
v 1.541393 -2.335111 0.000000
v 1.933572 -2.022358 0.000000
v 2.263605 -1.644605 0.000000
v 2.520883 -1.213993 0.000000
v 2.697139 -0.744363 0.000000
v 2.786706 -0.250808 0.000000
v 2.786706 0.250808 0.000000
v 2.697139 0.744363 0.000000
v 2.520883 1.213993 0.000000
v 2.263605 1.644605 0.000000
v 1.933572 2.022358 0.000000
v 1.541393 2.335111 0.000000
v 1.099672 2.572811 0.000000
v 0.622607 2.727819 0.000000
v 0.125530 2.795152 0.000000
v -0.375581 2.772647 0.000000
v -0.864620 2.661027 0.000000
v -1.325870 2.463879 0.000000
v -1.744505 2.187541 0.000000
v -2.107071 1.840892 0.000000
v -2.401914 1.435077 0.000000
v -2.619557 0.983136 0.000000
v -2.753005 0.499597 0.000000
v -2.000000 0.000000 -7.500000
v -1.956295 -0.415823 -7.500000
v -1.827091 -0.813473 -7.500000
v -1.618034 -1.175571 -7.500000
v -1.338261 -1.486290 -7.500000
v -1.000000 -1.732051 -7.500000
v -0.618034 -1.902113 -7.500000
v -0.209057 -1.989044 -7.500000
v 0.209057 -1.989044 -7.500000
v 0.618034 -1.902113 -7.500000
v 1.000000 -1.732051 -7.500000
v 1.338261 -1.486290 -7.500000
v 1.618034 -1.175571 -7.500000
v 1.827091 -0.813473 -7.500000
v 1.956295 -0.415823 -7.500000
v 2.000000 0.000000 -7.500000
v 1.956295 0.415823 -7.500000
v 1.827091 0.813473 -7.500000
v 1.618034 1.175571 -7.500000
v 1.338261 1.486290 -7.500000
v 1.000000 1.732051 -7.500000
v 0.618034 1.902113 -7.500000
v 0.209057 1.989044 -7.500000
v -0.209057 1.989044 -7.500000
v -0.618034 1.902113 -7.500000
v -1.000000 1.732051 -7.500000
v -1.338261 1.486290 -7.500000
v -1.618034 1.175571 -7.500000
v -1.827091 0.813473 -7.500000
v -1.956295 0.415823 -7.500000
v 2.000000 0.000000 -7.000000
v 1.956295 -0.415823 -7.000000
v 1.827091 -0.813473 -7.000000
v 1.618034 -1.175571 -7.000000
v 1.338261 -1.486290 -7.000000
v 1.000000 -1.732051 -7.000000
v 0.618034 -1.902113 -7.000000
v 0.209057 -1.989044 -7.000000
v -0.209057 -1.989044 -7.000000
v -0.618034 -1.902113 -7.000000
v -1.000000 -1.732051 -7.000000
v -1.338261 -1.486290 -7.000000
v -1.618034 -1.175571 -7.000000
v -1.827091 -0.813473 -7.000000
v -1.956295 -0.415823 -7.000000
v -2.000000 0.000000 -7.000000
v -1.956295 0.415823 -7.000000
v -1.827091 0.813473 -7.000000
v -1.618034 1.175571 -7.000000
v -1.338261 1.486290 -7.000000
v -1.000000 1.732051 -7.000000
v -0.618034 1.902113 -7.000000
v -0.209057 1.989044 -7.000000
v 0.209057 1.989044 -7.000000
v 0.618034 1.902113 -7.000000
v 1.000000 1.732051 -7.000000
v 1.338261 1.486290 -7.000000
v 1.618034 1.175571 -7.000000
v 1.827091 0.813473 -7.000000
v 1.956295 0.415823 -7.000000
v 3.000000 0.000000 0.000000
v 2.956848 0.507002 0.000000
v 2.828632 0.999419 0.000000
v 2.619042 1.463085 0.000000
v 2.334107 1.884660 0.000000
v 1.982024 2.252017 0.000000
v 1.572922 2.554587 0.000000
v 1.118569 2.783667 0.000000
v 0.632038 2.932666 0.000000
v 0.127324 2.997297 0.000000
v -0.381053 2.975701 0.000000
v -0.878468 2.868500 0.000000
v -1.350611 2.678778 0.000000
v -1.783900 2.411991 0.000000
v -2.165868 2.075817 0.000000
v -2.485529 1.679924 0.000000
v -2.733685 1.235704 0.000000
v -2.903199 0.755934 0.000000
v -2.989192 0.254418 0.000000
v -2.989192 -0.254418 0.000000
v -2.903199 -0.755934 0.000000
v -2.733685 -1.235704 0.000000
v -2.485529 -1.679924 0.000000
v -2.165868 -2.075817 0.000000
v -1.783900 -2.411991 0.000000
v -1.350611 -2.678778 0.000000
v -0.878468 -2.868500 0.000000
v -0.381053 -2.975701 0.000000
v 0.127324 -2.997297 0.000000
v 0.632038 -2.932666 0.000000
v 1.118569 -2.783667 0.000000
v 1.572922 -2.554587 0.000000
v 1.982024 -2.252017 0.000000
v 2.334107 -1.884660 0.000000
v 2.619042 -1.463085 0.000000
v 2.828632 -0.999419 0.000000
v 2.956848 -0.507002 0.000000
vt -1.855579 0.408444 0.000000
vt -1.900000 0.000000 0.000000
vt 1.066255 -1.572609 0.000000
vt -1.855579 -0.408444 0.000000
vt -1.724393 -0.797789 0.000000
vt -1.512577 -1.149831 0.000000
vt -1.230034 -1.448108 0.000000
vt -0.889976 -1.678673 0.000000
vt 0.703262 -1.765056 0.000000
vt -0.508304 -1.830745 0.000000
vt 0.307386 -1.874970 0.000000
vt -0.102864 -1.897213 0.000000
vt 1.379391 -1.306629 0.000000
vt 1.066255 1.572609 0.000000
vt 0.703262 1.765056 0.000000
vt 0.307386 1.874970 0.000000
vt 1.379391 1.306629 0.000000
vt 1.628029 -0.979552 0.000000
vt 1.628029 0.979552 0.000000
vt 1.800541 -0.606673 0.000000
vt 1.800541 0.606673 0.000000
vt 1.888862 -0.205426 0.000000
vt 1.888862 0.205426 0.000000
vt -0.102864 1.897213 0.000000
vt -0.508304 1.830745 0.000000
vt -0.889976 1.678673 0.000000
vt -1.230034 1.448108 0.000000
vt -1.512577 1.149831 0.000000
vt -1.724393 0.797789 0.000000
vt 0.400000 5.557369 0.000000
vt 0.500000 5.557369 0.000000
vt 0.400000 5.969026 0.000000
vt 0.500000 5.969026 0.000000
vt 0.400000 -5.969026 0.000000
vt 0.500000 -5.969026 0.000000
vt 0.400000 -5.557369 0.000000
vt 0.500000 -5.557369 0.000000
vt 0.400000 -5.145712 0.000000
vt 0.500000 -5.145712 0.000000
vt 0.400000 -4.734055 0.000000
vt 0.500000 -4.734055 0.000000
vt 0.400000 -4.322398 0.000000
vt 0.500000 -4.322398 0.000000
vt 0.400000 -3.910741 0.000000
vt 0.500000 -3.910741 0.000000
vt 0.400000 -3.499084 0.000000
vt 0.500000 -3.499084 0.000000
vt 0.400000 -3.087427 0.000000
vt 0.500000 -3.087427 0.000000
vt 0.400000 -2.675770 0.000000
vt 0.500000 -2.675770 0.000000
vt 0.400000 -2.264113 0.000000
vt 0.500000 -2.264113 0.000000
vt 0.400000 -1.852456 0.000000
vt 0.500000 -1.852456 0.000000
vt 0.400000 -1.440799 0.000000
vt 0.500000 -1.440799 0.000000
vt 0.400000 -1.029142 0.000000
vt 0.500000 -1.029142 0.000000
vt 0.400000 -0.617485 0.000000
vt 0.500000 -0.617485 0.000000
vt 0.400000 -0.205828 0.000000
vt 0.500000 -0.205828 0.000000
vt 0.400000 0.205828 0.000000
vt 0.500000 0.205828 0.000000
vt 0.400000 0.617485 0.000000
vt 0.500000 0.617485 0.000000
vt 0.400000 1.029142 0.000000
vt 0.500000 1.029142 0.000000
vt 0.400000 1.440799 0.000000
vt 0.500000 1.440799 0.000000
vt 0.400000 1.852456 0.000000
vt 0.500000 1.852456 0.000000
vt 0.400000 2.264113 0.000000
vt 0.500000 2.264113 0.000000
vt 0.400000 2.675770 0.000000
vt 0.500000 2.675770 0.000000
vt 0.400000 3.087427 0.000000
vt 0.500000 3.087427 0.000000
vt 0.400000 3.499084 0.000000
vt 0.500000 3.499084 0.000000
vt 0.400000 3.910741 0.000000
vt 0.500000 3.910741 0.000000
vt 0.400000 4.322398 0.000000
vt 0.500000 4.322398 0.000000
vt 0.400000 4.734055 0.000000
vt 0.500000 4.734055 0.000000
vt 0.400000 5.145712 0.000000
vt 0.500000 5.145712 0.000000
vt 0.300000 -5.264876 0.000000
vt -0.014214 -5.264876 0.000000
vt 0.300000 -5.654867 0.000000
vt -0.014214 -5.654867 0.000000
vt 0.300000 5.654867 0.000000
vt -0.014214 5.654867 0.000000
vt 0.300000 5.264876 0.000000
vt -0.014214 5.264876 0.000000
vt -0.014214 4.874885 0.000000
vt 0.300000 -4.874885 0.000000
vt -0.014214 -4.874885 0.000000
vt 0.300000 -4.484894 0.000000
vt -0.014214 -4.484894 0.000000
vt 0.300000 -4.094904 0.000000
vt -0.014214 -4.094904 0.000000
vt 0.300000 -3.704913 0.000000
vt -0.014214 -3.704913 0.000000
vt 0.300000 -3.314922 0.000000
vt -0.014214 -3.314922 0.000000
vt 0.300000 -2.924931 0.000000
vt -0.014214 -2.924931 0.000000
vt 0.300000 -2.534940 0.000000
vt -0.014214 -2.534940 0.000000
vt 0.300000 -2.144949 0.000000
vt -0.014214 -2.144949 0.000000
vt 0.300000 -1.754959 0.000000
vt -0.014214 -1.754959 0.000000
vt 0.300000 -1.364968 0.000000
vt -0.014214 -1.364968 0.000000
vt 0.300000 -0.974977 0.000000
vt -0.014214 -0.974977 0.000000
vt 0.300000 -0.584986 0.000000
vt -0.014214 -0.584986 0.000000
vt 0.300000 -0.194995 0.000000
vt -0.014214 -0.194995 0.000000
vt 0.300000 0.194995 0.000000
vt -0.014214 0.194995 0.000000
vt 0.300000 0.584986 0.000000
vt -0.014214 0.584986 0.000000
vt 0.300000 0.974977 0.000000
vt -0.014214 0.974977 0.000000
vt 0.300000 1.364968 0.000000
vt -0.014214 1.364968 0.000000
vt 0.300000 1.754959 0.000000
vt -0.014214 1.754959 0.000000
vt 0.300000 2.144949 0.000000
vt -0.014214 2.144949 0.000000
vt 0.300000 2.534940 0.000000
vt -0.014214 2.534940 0.000000
vt 0.300000 2.924931 0.000000
vt -0.014214 2.924931 0.000000
vt 0.300000 3.314922 0.000000
vt -0.014214 3.314922 0.000000
vt 0.300000 3.704913 0.000000
vt -0.014214 3.704913 0.000000
vt 0.300000 4.094904 0.000000
vt -0.014214 4.094904 0.000000
vt 0.300000 4.484894 0.000000
vt -0.014214 4.484894 0.000000
vt 0.300000 4.874885 0.000000
vt 1.757917 -0.386947 0.000000
vt 1.800000 0.000000 0.000000
vt -1.010137 -1.489840 0.000000
vt 1.757917 0.386947 0.000000
vt 1.633636 0.755800 0.000000
vt 1.432968 1.089314 0.000000
vt 1.165295 1.371892 0.000000
vt 0.843135 1.590322 0.000000
vt 0.481551 1.734390 0.000000
vt 0.097450 1.797360 0.000000
vt -0.291208 1.776288 0.000000
vt -0.666249 1.672158 0.000000
vt -1.010137 1.489840 0.000000
vt -1.306792 -1.237859 0.000000
vt -1.306792 1.237859 0.000000
vt -1.542343 -0.927997 0.000000
vt -1.542343 0.927997 0.000000
vt -1.705776 -0.574743 0.000000
vt -1.705776 0.574743 0.000000
vt -1.789448 -0.194614 0.000000
vt -1.789448 0.194614 0.000000
vt -0.666249 -1.672158 0.000000
vt 0.843135 -1.590322 0.000000
vt 1.165295 -1.371892 0.000000
vt 1.432968 -1.089314 0.000000
vt 0.481551 -1.734390 0.000000
vt -0.291208 -1.776288 0.000000
vt 0.097450 -1.797360 0.000000
vt 1.633636 -0.755800 0.000000
vt 0.028571 -6.809761 0.000000
vt 0.028571 -7.222474 0.000000
vt 7.085281 -7.222474 0.000000
vt 7.085281 7.222474 0.000000
vt 0.028571 7.222474 0.000000
vt 0.028571 6.809761 0.000000
vt 7.085281 6.724372 0.000000
vt 0.028571 6.397048 0.000000
vt 7.085281 6.226270 0.000000
vt 0.028571 5.984335 0.000000
vt 7.085281 5.728169 0.000000
vt 0.028571 5.571622 0.000000
vt 7.085281 5.230067 0.000000
vt 0.028571 5.158910 0.000000
vt 7.085281 4.731965 0.000000
vt 0.028571 4.746197 0.000000
vt 0.028571 4.333484 0.000000
vt 7.085281 4.233864 0.000000
vt 0.028571 3.920771 0.000000
vt 7.085281 3.735762 0.000000
vt 0.028571 3.508059 0.000000
vt 7.085281 3.237661 0.000000
vt 0.028571 3.095346 0.000000
vt 7.085281 2.739559 0.000000
vt 0.028571 2.682633 0.000000
vt 7.085281 2.241457 0.000000
vt 0.028571 2.269920 0.000000
vt 0.028571 1.857207 0.000000
vt 7.085281 1.743356 0.000000
vt 0.028571 1.444495 0.000000
vt 7.085281 1.245254 0.000000
vt 0.028571 1.031782 0.000000
vt 7.085281 0.747152 0.000000
vt 0.028571 0.619069 0.000000
vt 7.085281 0.249051 0.000000
vt 0.028571 0.206356 0.000000
vt 0.028571 -0.206356 0.000000
vt 7.085281 -0.249051 0.000000
vt 0.028571 -0.619069 0.000000
vt 7.085281 -0.747152 0.000000
vt 0.028571 -1.031782 0.000000
vt 7.085281 -1.245254 0.000000
vt 0.028571 -1.444495 0.000000
vt 7.085281 -1.743356 0.000000
vt 0.028571 -1.857207 0.000000
vt 7.085281 -2.241457 0.000000
vt 0.028571 -2.269920 0.000000
vt 0.028571 -2.682633 0.000000
vt 7.085281 -2.739559 0.000000
vt 0.028571 -3.095346 0.000000
vt 7.085281 -3.237661 0.000000
vt 0.028571 -3.508059 0.000000
vt 7.085281 -3.735762 0.000000
vt 0.028571 -3.920771 0.000000
vt 7.085281 -4.233864 0.000000
vt 0.028571 -4.333484 0.000000
vt 7.085281 -4.731965 0.000000
vt 0.028571 -4.746197 0.000000
vt 0.028571 -5.158910 0.000000
vt 7.085281 -5.230067 0.000000
vt 0.028571 -5.571622 0.000000
vt 7.085281 -5.728169 0.000000
vt 0.028571 -5.984335 0.000000
vt 7.085281 -6.226270 0.000000
vt 0.028571 -6.397048 0.000000
vt 7.085281 -6.724372 0.000000
vt -0.500000 5.864306 0.000000
vt 0.000000 5.864306 0.000000
vt -0.500000 6.283185 0.000000
vt -0.000000 6.283185 0.000000
vt -0.500000 -6.283185 0.000000
vt -0.000000 -6.283185 0.000000
vt -0.500000 -5.864306 0.000000
vt -0.000000 -5.864306 0.000000
vt -0.500000 -5.445427 0.000000
vt -0.000000 -5.445427 0.000000
vt -0.500000 -5.026548 0.000000
vt -0.000000 -5.026548 0.000000
vt -0.500000 -4.607669 0.000000
vt -0.000000 -4.607669 0.000000
vt -0.500000 -4.188790 0.000000
vt -0.000000 -4.188790 0.000000
vt -0.500000 -3.769911 0.000000
vt -0.000000 -3.769911 0.000000
vt -0.500000 -3.351032 0.000000
vt -0.000000 -3.351032 0.000000
vt -0.500000 -2.932153 0.000000
vt -0.000000 -2.932153 0.000000
vt -0.500000 -2.513274 0.000000
vt -0.000000 -2.513274 0.000000
vt -0.500000 -2.094395 0.000000
vt -0.000000 -2.094395 0.000000
vt -0.500000 -1.675516 0.000000
vt -0.000000 -1.675516 0.000000
vt -0.500000 -1.256637 0.000000
vt -0.000000 -1.256637 0.000000
vt -0.500000 -0.837758 0.000000
vt -0.000000 -0.837758 0.000000
vt -0.500000 -0.418879 0.000000
vt -0.000000 -0.418879 0.000000
vt -0.500000 0.000000 0.000000
vt -0.000000 0.000000 0.000000
vt -0.500000 0.418879 0.000000
vt -0.000000 0.418879 0.000000
vt -0.500000 0.837758 0.000000
vt -0.000000 0.837758 0.000000
vt -0.500000 1.256637 0.000000
vt -0.000000 1.256637 0.000000
vt -0.500000 1.675516 0.000000
vt -0.000000 1.675516 0.000000
vt -0.500000 2.094395 0.000000
vt -0.000000 2.094395 0.000000
vt -0.500000 2.513274 0.000000
vt -0.000000 2.513274 0.000000
vt -0.500000 2.932153 0.000000
vt -0.000000 2.932153 0.000000
vt -0.500000 3.351032 0.000000
vt 0.000000 3.351032 0.000000
vt -0.500000 3.769911 0.000000
vt 0.000000 3.769911 0.000000
vt -0.500000 4.188790 0.000000
vt 0.000000 4.188790 0.000000
vt -0.500000 4.607669 0.000000
vt 0.000000 4.607669 0.000000
vt -0.500000 5.026548 0.000000
vt 0.000000 5.026548 0.000000
vt -0.500000 5.445427 0.000000
vt 0.000000 5.445427 0.000000
vt -1.855579 0.408444 0.000000
vt -1.956295 0.415823 0.000000
vt -1.900000 0.000000 0.000000
vt -2.000000 -0.000000 0.000000
vt -1.956295 -0.415823 0.000000
vt -1.827091 0.813473 0.000000
vt -1.724393 0.797789 0.000000
vt -1.618034 1.175571 0.000000
vt -1.512577 1.149831 0.000000
vt -1.338261 1.486290 0.000000
vt -1.230034 1.448108 0.000000
vt -1.000000 1.732051 0.000000
vt -0.889976 1.678673 0.000000
vt -0.618034 1.902113 0.000000
vt -0.508304 1.830745 0.000000
vt -0.209057 1.989044 0.000000
vt -0.102864 1.897213 0.000000
vt 0.209057 1.989044 0.000000
vt 0.307386 1.874970 0.000000
vt 0.618034 1.902113 0.000000
vt 0.703262 1.765056 0.000000
vt 1.000000 1.732051 0.000000
vt 1.066255 1.572609 0.000000
vt 1.338261 1.486290 0.000000
vt 1.379391 1.306629 0.000000
vt 1.618034 1.175571 0.000000
vt 1.628029 0.979552 0.000000
vt 1.827091 0.813473 0.000000
vt 1.800541 0.606673 0.000000
vt 1.956295 0.415823 0.000000
vt 1.888862 0.205426 0.000000
vt 2.000000 0.000000 0.000000
vt 1.888862 -0.205426 0.000000
vt 1.956295 -0.415823 0.000000
vt 1.800541 -0.606673 0.000000
vt 1.827091 -0.813473 0.000000
vt 1.628029 -0.979552 0.000000
vt 1.618034 -1.175571 0.000000
vt 1.379391 -1.306629 0.000000
vt 1.338261 -1.486290 0.000000
vt 1.066255 -1.572609 0.000000
vt 1.000000 -1.732051 0.000000
vt 0.703262 -1.765056 0.000000
vt 0.618034 -1.902113 0.000000
vt 0.307386 -1.874970 0.000000
vt 0.209057 -1.989044 0.000000
vt -0.102864 -1.897213 0.000000
vt -0.209057 -1.989044 0.000000
vt -0.508304 -1.830745 0.000000
vt -0.618034 -1.902113 0.000000
vt -0.889976 -1.678673 0.000000
vt -1.000000 -1.732051 0.000000
vt -1.230034 -1.448108 0.000000
vt -1.338261 -1.486290 0.000000
vt -1.512577 -1.149831 0.000000
vt -1.618034 -1.175571 0.000000
vt -1.724393 -0.797789 0.000000
vt -1.827091 -0.813473 0.000000
vt -1.855579 -0.408444 0.000000
vt -2.753005 0.499597 0.000000
vt -2.989192 0.254418 0.000000
vt -2.797969 -0.000000 0.000000
vt -2.989192 -0.254418 0.000000
vt -2.753005 -0.499597 0.000000
vt -2.903199 -0.755934 0.000000
vt -2.619557 -0.983136 0.000000
vt -2.733685 -1.235704 0.000000
vt -2.401914 -1.435077 0.000000
vt -2.485529 -1.679924 0.000000
vt -2.107071 -1.840892 0.000000
vt -2.165868 -2.075817 0.000000
vt -1.744505 -2.187541 0.000000
vt -1.783900 -2.411991 0.000000
vt -1.325870 -2.463879 0.000000
vt -1.350611 -2.678778 0.000000
vt -0.864620 -2.661027 0.000000
vt -0.878468 -2.868500 0.000000
vt -0.375581 -2.772647 0.000000
vt -0.381053 -2.975701 0.000000
vt 0.125530 -2.795152 0.000000
vt 0.127324 -2.997297 0.000000
vt 0.632038 -2.932666 0.000000
vt -2.903199 0.755934 0.000000
vt -2.619557 0.983136 0.000000
vt -2.733685 1.235704 0.000000
vt -2.401914 1.435077 0.000000
vt -2.485529 1.679924 0.000000
vt -2.107071 1.840892 0.000000
vt -2.165868 2.075817 0.000000
vt -1.744505 2.187541 0.000000
vt -1.783900 2.411991 0.000000
vt -1.325870 2.463879 0.000000
vt -1.350611 2.678778 0.000000
vt -0.864620 2.661027 0.000000
vt -0.878468 2.868500 0.000000
vt -0.375581 2.772647 0.000000
vt -0.381053 2.975701 0.000000
vt 0.125530 2.795152 0.000000
vt 0.127324 2.997297 0.000000
vt 0.632038 2.932666 0.000000
vt 0.622607 2.727819 0.000000
vt 1.118569 2.783667 0.000000
vt 1.099672 2.572811 0.000000
vt 1.572922 2.554587 0.000000
vt 1.541393 2.335111 0.000000
vt 1.982024 2.252017 0.000000
vt 1.933572 2.022358 0.000000
vt 2.334107 1.884660 0.000000
vt 2.263605 1.644605 0.000000
vt 2.619042 1.463085 0.000000
vt 2.520883 1.213993 0.000000
vt 2.828632 0.999419 0.000000
vt 2.697139 0.744363 0.000000
vt 2.956848 0.507002 0.000000
vt 2.786706 0.250808 0.000000
vt 3.000000 0.000000 0.000000
vt 2.786706 -0.250808 0.000000
vt 2.956848 -0.507002 0.000000
vt 2.697139 -0.744363 0.000000
vt 2.828632 -0.999419 0.000000
vt 2.520883 -1.213993 0.000000
vt 2.619042 -1.463085 0.000000
vt 2.263605 -1.644605 0.000000
vt 2.334107 -1.884660 0.000000
vt 1.933572 -2.022358 0.000000
vt 1.982024 -2.252017 0.000000
vt 1.541393 -2.335111 0.000000
vt 1.572922 -2.554587 0.000000
vt 1.099672 -2.572811 0.000000
vt 1.118569 -2.783667 0.000000
vt 0.622607 -2.727819 0.000000
vt -0.000000 -0.424540 0.000000
vt -0.000000 0.000000 0.000000
vt -7.071068 0.000000 0.000000
vt -0.000000 0.424540 0.000000
vt -7.071068 0.523599 0.000000
vt -0.000000 0.849079 0.000000
vt -7.071068 1.047198 0.000000
vt -0.000000 1.273619 0.000000
vt -7.071068 1.570796 0.000000
vt -0.000000 1.698158 0.000000
vt -7.071068 2.094395 0.000000
vt -0.000000 2.122698 0.000000
vt -0.000000 2.547237 0.000000
vt -7.071068 2.617994 0.000000
vt -0.000000 2.971777 0.000000
vt -7.071068 3.141593 0.000000
vt -0.000000 3.396316 0.000000
vt -7.071068 3.665191 0.000000
vt -0.000000 3.820856 0.000000
vt -7.071068 4.188790 0.000000
vt -0.000000 4.245395 0.000000
vt -7.071068 4.712389 0.000000
vt 0.000000 4.669935 0.000000
vt 0.000000 5.094475 0.000000
vt -7.071068 5.235988 0.000000
vt -0.000000 5.519014 0.000000
vt -7.071068 5.759587 0.000000
vt -0.000000 5.943554 0.000000
vt -7.071068 6.283185 0.000000
vt -0.000000 6.368093 0.000000
vt -7.071068 6.806784 0.000000
vt -0.000000 6.792633 0.000000
vt 0.000000 7.217172 0.000000
vt -7.071068 7.330383 0.000000
vt 0.000000 7.641712 0.000000
vt -7.071068 7.853982 0.000000
vt -7.071068 -7.853982 0.000000
vt 0.000000 -8.066251 0.000000
vt -0.000000 -7.641712 0.000000
vt -7.071068 -7.330383 0.000000
vt -0.000000 -7.217172 0.000000
vt -7.071068 -6.806784 0.000000
vt -0.000000 -6.792633 0.000000
vt -0.000000 -6.368093 0.000000
vt -7.071068 -6.283185 0.000000
vt -0.000000 -5.943554 0.000000
vt -7.071068 -5.759587 0.000000
vt -0.000000 -5.519014 0.000000
vt -7.071068 -5.235988 0.000000
vt 0.000000 -5.094475 0.000000
vt -7.071068 -4.712389 0.000000
vt 0.000000 -4.669935 0.000000
vt 0.000000 -4.245395 0.000000
vt -7.071068 -4.188790 0.000000
vt -0.000000 -3.820856 0.000000
vt -7.071068 -3.665191 0.000000
vt 0.000000 -3.396316 0.000000
vt -7.071068 -3.141593 0.000000
vt 0.000000 -2.971777 0.000000
vt -7.071068 -2.617994 0.000000
vt -0.000000 -2.547237 0.000000
vt -7.071068 -2.094395 0.000000
vt -0.000000 -2.122698 0.000000
vt -0.000000 -1.698158 0.000000
vt -7.071068 -1.570796 0.000000
vt -0.000000 -1.273619 0.000000
vt -7.071068 -1.047198 0.000000
vt -0.000000 -0.849079 0.000000
vt -7.071068 -0.523599 0.000000
vn 0.000000 0.000000 -1.000000
vn 0.000000 0.000000 -1.000000
vn 0.000000 0.000000 -1.000000
vn 0.000000 0.000000 -1.000000
vn 0.000000 0.000000 -1.000000
vn 0.000000 0.000000 -1.000000
vn 0.000000 0.000000 -1.000000
vn 0.000000 0.000000 -1.000000
vn 0.000000 0.000000 -1.000000
vn 0.000000 0.000000 -1.000000
vn 0.000000 0.000000 -1.000000
vn 0.000000 0.000000 -1.000000
vn 0.000000 0.000000 -1.000000
vn 0.000000 0.000000 -1.000000
vn 0.000000 0.000000 -1.000000
vn 0.000000 0.000000 -1.000000
vn 0.000000 0.000000 -1.000000
vn 0.000000 0.000000 -1.000000
vn 0.000000 0.000000 -1.000000
vn 0.000000 0.000000 -1.000000
vn 0.000000 0.000000 -1.000000
vn 0.000000 0.000000 -1.000000
vn 0.000000 0.000000 -1.000000
vn 0.000000 0.000000 -1.000000
vn 0.000000 0.000000 -1.000000
vn 0.000000 0.000000 -1.000000
vn 0.000000 0.000000 -1.000000
vn 0.000000 0.000000 -1.000000
vn 0.000000 0.000000 -1.000000
vn 0.976621 0.214970 0.000000
vn 0.976621 0.214970 0.000000
vn 1.000000 0.000000 0.000000
vn 1.000000 0.000000 0.000000
vn 0.976621 -0.214970 0.000000
vn 0.976621 -0.214970 0.000000
vn 0.907575 -0.419889 0.000000
vn 0.907575 -0.419889 0.000000
vn 0.796093 -0.605174 0.000000
vn 0.796093 -0.605174 0.000000
vn 0.647386 -0.762162 0.000000
vn 0.647386 -0.762162 0.000000
vn 0.468408 -0.883512 0.000000
vn 0.468408 -0.883512 0.000000
vn 0.267528 -0.963550 0.000000
vn 0.267528 -0.963550 0.000000
vn 0.054139 -0.998533 0.000000
vn 0.054139 -0.998533 0.000000
vn -0.161782 -0.986827 -0.000000
vn -0.161782 -0.986827 -0.000000
vn -0.370138 -0.928977 -0.000000
vn -0.370138 -0.928977 -0.000000
vn -0.561187 -0.827689 -0.000000
vn -0.561187 -0.827689 -0.000000
vn -0.725995 -0.687699 -0.000000
vn -0.725995 -0.687699 -0.000000
vn -0.856857 -0.515554 -0.000000
vn -0.856857 -0.515554 -0.000000
vn -0.947653 -0.319302 -0.000000
vn -0.947653 -0.319302 -0.000000
vn -0.994138 -0.108119 -0.000000
vn -0.994138 -0.108119 -0.000000
vn -0.994138 0.108119 0.000000
vn -0.994138 0.108119 0.000000
vn -0.947653 0.319302 0.000000
vn -0.947653 0.319302 0.000000
vn -0.856857 0.515554 0.000000
vn -0.856857 0.515554 0.000000
vn -0.725995 0.687699 0.000000
vn -0.725995 0.687699 0.000000
vn -0.561187 0.827689 0.000000
vn -0.561187 0.827689 0.000000
vn -0.370138 0.928977 0.000000
vn -0.370138 0.928977 0.000000
vn -0.161782 0.986827 0.000000
vn -0.161782 0.986827 0.000000
vn 0.054139 0.998533 0.000000
vn 0.054139 0.998533 0.000000
vn 0.267528 0.963550 0.000000
vn 0.267528 0.963550 0.000000
vn 0.468408 0.883512 0.000000
vn 0.468408 0.883512 0.000000
vn 0.647386 0.762162 0.000000
vn 0.647386 0.762162 0.000000
vn 0.796093 0.605174 0.000000
vn 0.796093 0.605174 0.000000
vn 0.907575 0.419889 0.000000
vn 0.907575 0.419889 0.000000
vn 0.976621 -0.214970 0.000000
vn 0.976621 -0.214970 0.000000
vn 1.000000 -0.000000 0.000000
vn 1.000000 -0.000000 0.000000
vn 0.976621 0.214970 0.000000
vn 0.976621 0.214970 0.000000
vn 0.907575 0.419889 0.000000
vn 0.907575 -0.419889 0.000000
vn 0.907575 -0.419889 0.000000
vn 0.796093 -0.605174 0.000000
vn 0.796093 -0.605174 0.000000
vn 0.647386 -0.762162 0.000000
vn 0.647386 -0.762162 0.000000
vn 0.468408 -0.883512 0.000000
vn 0.468408 -0.883512 0.000000
vn 0.267528 -0.963550 0.000000
vn 0.267528 -0.963550 0.000000
vn 0.054139 -0.998533 0.000000
vn 0.054139 -0.998533 0.000000
vn -0.161782 -0.986827 -0.000000
vn -0.161782 -0.986827 -0.000000
vn -0.370138 -0.928977 -0.000000
vn -0.370138 -0.928977 -0.000000
vn -0.561187 -0.827689 -0.000000
vn -0.561187 -0.827689 -0.000000
vn -0.725995 -0.687699 -0.000000
vn -0.725995 -0.687699 -0.000000
vn -0.856857 -0.515554 -0.000000
vn -0.856857 -0.515554 -0.000000
vn -0.947653 -0.319302 -0.000000
vn -0.947653 -0.319302 -0.000000
vn -0.994138 -0.108119 -0.000000
vn -0.994138 -0.108119 -0.000000
vn -0.994138 0.108119 0.000000
vn -0.994138 0.108119 0.000000
vn -0.947653 0.319302 0.000000
vn -0.947653 0.319302 0.000000
vn -0.856857 0.515554 0.000000
vn -0.856857 0.515554 0.000000
vn -0.725995 0.687699 0.000000
vn -0.725995 0.687699 0.000000
vn -0.561187 0.827689 0.000000
vn -0.561187 0.827689 0.000000
vn -0.370138 0.928977 0.000000
vn -0.370138 0.928977 0.000000
vn -0.161782 0.986827 0.000000
vn -0.161782 0.986827 0.000000
vn 0.054139 0.998533 0.000000
vn 0.054139 0.998533 0.000000
vn 0.267528 0.963550 0.000000
vn 0.267528 0.963550 0.000000
vn 0.468408 0.883512 0.000000
vn 0.468408 0.883512 0.000000
vn 0.647386 0.762162 0.000000
vn 0.647386 0.762162 0.000000
vn 0.796093 0.605174 0.000000
vn 0.796093 0.605174 0.000000
vn 0.907575 0.419889 0.000000
vn -0.000000 -0.000000 1.000000
vn -0.000000 -0.000000 1.000000
vn -0.000000 -0.000000 1.000000
vn -0.000000 -0.000000 1.000000
vn -0.000000 -0.000000 1.000000
vn -0.000000 -0.000000 1.000000
vn -0.000000 -0.000000 1.000000
vn -0.000000 -0.000000 1.000000
vn -0.000000 -0.000000 1.000000
vn -0.000000 -0.000000 1.000000
vn -0.000000 -0.000000 1.000000
vn -0.000000 -0.000000 1.000000
vn -0.000000 -0.000000 1.000000
vn -0.000000 -0.000000 1.000000
vn -0.000000 -0.000000 1.000000
vn -0.000000 -0.000000 1.000000
vn -0.000000 -0.000000 1.000000
vn -0.000000 -0.000000 1.000000
vn -0.000000 -0.000000 1.000000
vn -0.000000 -0.000000 1.000000
vn -0.000000 -0.000000 1.000000
vn -0.000000 -0.000000 1.000000
vn -0.000000 -0.000000 1.000000
vn -0.000000 -0.000000 1.000000
vn -0.000000 -0.000000 1.000000
vn -0.000000 -0.000000 1.000000
vn -0.000000 -0.000000 1.000000
vn -0.000000 -0.000000 1.000000
vn -0.000000 -0.000000 1.000000
vn 0.974041 -0.176762 0.141421
vn 0.989949 -0.000000 0.141421
vn 0.989949 -0.000000 0.141421
vn 0.974041 0.176762 0.141421
vn 0.966805 0.212810 0.141421
vn 0.926825 0.347843 0.141421
vn 0.898454 0.415669 0.141421
vn 0.849821 0.507744 0.141421
vn 0.788092 0.599092 0.141421
vn 0.745503 0.651326 0.141421
vn 0.640880 0.754502 0.141421
vn 0.617223 0.773974 0.141421
vn 0.463701 0.874632 0.141421
vn 0.469106 0.871745 0.141421
vn 0.305911 0.941498 0.141421
vn 0.264840 0.953866 0.141421
vn 0.132884 0.980990 0.141421
vn 0.053595 0.988498 0.141421
vn -0.044414 0.988953 0.141421
vn -0.160156 0.976908 0.141421
vn -0.220284 0.965129 0.141421
vn -0.366418 0.919640 0.141421
vn -0.389075 0.910286 0.141421
vn -0.555547 0.819370 0.141421
vn -0.545360 0.826185 0.141421
vn -0.684117 0.715530 0.141421
vn -0.718699 0.680788 0.141421
vn -0.800886 0.581878 0.141421
vn -0.848245 0.510372 0.141421
vn -0.891914 0.429523 0.141421
vn -0.938129 0.316092 0.141421
vn -0.954275 0.263363 0.141421
vn -0.984146 0.107032 0.141421
vn -0.985964 0.088738 0.141421
vn -0.985964 -0.088738 0.141421
vn -0.984146 -0.107032 0.141421
vn -0.954275 -0.263363 0.141421
vn -0.938129 -0.316092 0.141421
vn -0.891914 -0.429523 0.141421
vn -0.848245 -0.510372 0.141421
vn -0.800886 -0.581878 0.141421
vn -0.718699 -0.680788 0.141421
vn -0.684117 -0.715530 0.141421
vn -0.555547 -0.819370 0.141421
vn -0.545360 -0.826185 0.141421
vn -0.389075 -0.910286 0.141421
vn -0.366418 -0.919640 0.141421
vn -0.220284 -0.965129 0.141421
vn -0.160156 -0.976908 0.141421
vn -0.044414 -0.988953 0.141421
vn 0.053595 -0.988498 0.141421
vn 0.132884 -0.980990 0.141421
vn 0.264840 -0.953866 0.141421
vn 0.305911 -0.941498 0.141421
vn 0.463701 -0.874632 0.141421
vn 0.469106 -0.871745 0.141421
vn 0.617223 -0.773974 0.141421
vn 0.640880 -0.754502 0.141421
vn 0.745503 -0.651326 0.141421
vn 0.788092 -0.599092 0.141421
vn 0.849821 -0.507744 0.141421
vn 0.898454 -0.415669 0.141421
vn 0.926825 -0.347843 0.141421
vn 0.966805 -0.212810 0.141421
vn -0.978148 -0.207912 -0.000000
vn -0.978148 -0.207912 -0.000000
vn -1.000000 -0.000000 -0.000000
vn -1.000000 -0.000000 -0.000000
vn -0.978148 0.207912 -0.000000
vn -0.978148 0.207912 -0.000000
vn -0.913545 0.406737 -0.000000
vn -0.913545 0.406737 -0.000000
vn -0.809017 0.587785 -0.000000
vn -0.809017 0.587785 -0.000000
vn -0.669131 0.743145 -0.000000
vn -0.669131 0.743145 -0.000000
vn -0.500000 0.866025 -0.000000
vn -0.500000 0.866025 -0.000000
vn -0.309017 0.951057 -0.000000
vn -0.309017 0.951057 -0.000000
vn -0.104528 0.994522 -0.000000
vn -0.104528 0.994522 -0.000000
vn 0.104528 0.994522 0.000000
vn 0.104528 0.994522 0.000000
vn 0.309017 0.951057 0.000000
vn 0.309017 0.951057 0.000000
vn 0.500000 0.866025 0.000000
vn 0.500000 0.866025 0.000000
vn 0.669131 0.743145 0.000000
vn 0.669131 0.743145 0.000000
vn 0.809017 0.587785 0.000000
vn 0.809017 0.587785 0.000000
vn 0.913545 0.406737 0.000000
vn 0.913545 0.406737 0.000000
vn 0.978148 0.207912 0.000000
vn 0.978148 0.207912 0.000000
vn 1.000000 0.000000 0.000000
vn 1.000000 0.000000 0.000000
vn 0.978148 -0.207912 -0.000000
vn 0.978148 -0.207912 -0.000000
vn 0.913545 -0.406737 -0.000000
vn 0.913545 -0.406737 -0.000000
vn 0.809017 -0.587785 -0.000000
vn 0.809017 -0.587785 -0.000000
vn 0.669131 -0.743145 -0.000000
vn 0.669131 -0.743145 -0.000000
vn 0.500000 -0.866025 -0.000000
vn 0.500000 -0.866025 -0.000000
vn 0.309017 -0.951057 -0.000000
vn 0.309017 -0.951057 -0.000000
vn 0.104528 -0.994522 -0.000000
vn 0.104528 -0.994522 -0.000000
vn -0.104528 -0.994522 -0.000000
vn -0.104528 -0.994522 -0.000000
vn -0.309017 -0.951057 -0.000000
vn -0.309017 -0.951057 -0.000000
vn -0.500000 -0.866025 -0.000000
vn -0.500000 -0.866025 -0.000000
vn -0.669131 -0.743145 -0.000000
vn -0.669131 -0.743145 -0.000000
vn -0.809017 -0.587785 -0.000000
vn -0.809017 -0.587785 -0.000000
vn -0.913545 -0.406737 -0.000000
vn -0.913545 -0.406737 -0.000000
vn 0.000000 0.000000 -1.000000
vn 0.000000 0.000000 -1.000000
vn 0.000000 0.000000 -1.000000
vn 0.000000 0.000000 -1.000000
vn 0.000000 0.000000 -1.000000
vn 0.000000 0.000000 -1.000000
vn 0.000000 0.000000 -1.000000
vn 0.000000 0.000000 -1.000000
vn 0.000000 0.000000 -1.000000
vn 0.000000 0.000000 -1.000000
vn 0.000000 0.000000 -1.000000
vn 0.000000 0.000000 -1.000000
vn 0.000000 0.000000 -1.000000
vn 0.000000 0.000000 -1.000000
vn 0.000000 0.000000 -1.000000
vn 0.000000 0.000000 -1.000000
vn 0.000000 0.000000 -1.000000
vn 0.000000 0.000000 -1.000000
vn 0.000000 0.000000 -1.000000
vn 0.000000 0.000000 -1.000000
vn 0.000000 0.000000 -1.000000
vn 0.000000 0.000000 -1.000000
vn 0.000000 0.000000 -1.000000
vn 0.000000 0.000000 -1.000000
vn 0.000000 0.000000 -1.000000
vn 0.000000 0.000000 -1.000000
vn 0.000000 0.000000 -1.000000
vn 0.000000 0.000000 -1.000000
vn 0.000000 0.000000 -1.000000
vn 0.000000 0.000000 -1.000000
vn 0.000000 0.000000 -1.000000
vn 0.000000 0.000000 -1.000000
vn 0.000000 0.000000 -1.000000
vn 0.000000 0.000000 -1.000000
vn 0.000000 0.000000 -1.000000
vn 0.000000 0.000000 -1.000000
vn 0.000000 0.000000 -1.000000
vn 0.000000 0.000000 -1.000000
vn 0.000000 0.000000 -1.000000
vn 0.000000 0.000000 -1.000000
vn 0.000000 0.000000 -1.000000
vn 0.000000 0.000000 -1.000000
vn 0.000000 0.000000 -1.000000
vn 0.000000 0.000000 -1.000000
vn 0.000000 0.000000 -1.000000
vn 0.000000 0.000000 -1.000000
vn 0.000000 0.000000 -1.000000
vn 0.000000 0.000000 -1.000000
vn 0.000000 0.000000 -1.000000
vn 0.000000 0.000000 -1.000000
vn 0.000000 0.000000 -1.000000
vn 0.000000 0.000000 -1.000000
vn 0.000000 0.000000 -1.000000
vn 0.000000 0.000000 -1.000000
vn 0.000000 0.000000 -1.000000
vn 0.000000 0.000000 -1.000000
vn 0.000000 0.000000 -1.000000
vn 0.000000 0.000000 -1.000000
vn 0.000000 0.000000 -1.000000
vn 0.000000 0.000000 1.000000
vn 0.000000 0.000000 1.000000
vn 0.000000 0.000000 1.000000
vn 0.000000 0.000000 1.000000
vn 0.000000 0.000000 1.000000
vn 0.000000 0.000000 1.000000
vn 0.000000 0.000000 1.000000
vn 0.000000 0.000000 1.000000
vn 0.000000 0.000000 1.000000
vn 0.000000 0.000000 1.000000
vn 0.000000 0.000000 1.000000
vn 0.000000 0.000000 1.000000
vn 0.000000 0.000000 1.000000
vn 0.000000 0.000000 1.000000
vn 0.000000 0.000000 1.000000
vn 0.000000 0.000000 1.000000
vn 0.000000 0.000000 1.000000
vn 0.000000 0.000000 1.000000
vn 0.000000 0.000000 1.000000
vn 0.000000 0.000000 1.000000
vn 0.000000 0.000000 1.000000
vn 0.000000 0.000000 1.000000
vn 0.000000 0.000000 1.000000
vn 0.000000 0.000000 1.000000
vn 0.000000 0.000000 1.000000
vn 0.000000 0.000000 1.000000
vn 0.000000 0.000000 1.000000
vn 0.000000 0.000000 1.000000
vn 0.000000 0.000000 1.000000
vn 0.000000 0.000000 1.000000
vn 0.000000 0.000000 1.000000
vn 0.000000 0.000000 1.000000
vn 0.000000 0.000000 1.000000
vn 0.000000 0.000000 1.000000
vn 0.000000 0.000000 1.000000
vn 0.000000 0.000000 1.000000
vn 0.000000 0.000000 1.000000
vn 0.000000 0.000000 1.000000
vn 0.000000 0.000000 1.000000
vn 0.000000 0.000000 1.000000
vn 0.000000 0.000000 1.000000
vn 0.000000 0.000000 1.000000
vn 0.000000 0.000000 1.000000
vn 0.000000 0.000000 1.000000
vn 0.000000 0.000000 1.000000
vn 0.000000 0.000000 1.000000
vn 0.000000 0.000000 1.000000
vn 0.000000 0.000000 1.000000
vn 0.000000 0.000000 1.000000
vn 0.000000 0.000000 1.000000
vn 0.000000 0.000000 1.000000
vn 0.000000 0.000000 1.000000
vn 0.000000 0.000000 1.000000
vn 0.000000 0.000000 1.000000
vn 0.000000 0.000000 1.000000
vn 0.000000 0.000000 1.000000
vn 0.000000 0.000000 1.000000
vn 0.000000 0.000000 1.000000
vn 0.000000 0.000000 1.000000
vn 0.000000 0.000000 1.000000
vn 0.000000 0.000000 1.000000
vn 0.000000 0.000000 1.000000
vn 0.000000 0.000000 1.000000
vn 0.000000 0.000000 1.000000
vn 0.000000 0.000000 1.000000
vn 0.000000 0.000000 1.000000
vn 0.000000 0.000000 1.000000
vn 0.000000 0.000000 1.000000
vn 0.000000 0.000000 1.000000
vn 0.000000 0.000000 1.000000
vn 0.000000 0.000000 1.000000
vn 0.000000 0.000000 1.000000
vn 0.975710 0.167302 -0.141421
vn 0.989949 -0.000000 -0.141421
vn 0.989949 -0.000000 -0.141421
vn 0.975710 -0.167302 -0.141421
vn 0.968317 -0.205822 -0.141421
vn 0.933401 -0.329792 -0.141421
vn 0.904364 -0.402649 -0.141421
vn 0.864240 -0.482793 -0.141421
vn 0.800886 -0.581878 -0.141421
vn 0.770216 -0.621906 -0.141421
vn 0.662406 -0.735676 -0.141421
vn 0.654035 -0.743128 -0.141421
vn 0.519038 -0.842971 -0.141421
vn 0.494975 -0.857321 -0.141421
vn 0.369109 -0.918563 -0.141421
vn 0.305911 -0.941498 -0.141421
vn 0.208562 -0.967730 -0.141421
vn 0.103478 -0.984526 -0.141421
vn 0.042015 -0.989058 -0.141421
vn -0.103478 -0.984526 -0.141421
vn -0.125741 -0.981931 -0.141421
vn -0.305911 -0.941498 -0.141421
vn -0.289880 -0.946557 -0.141421
vn -0.445679 -0.883952 -0.141421
vn -0.494975 -0.857321 -0.141421
vn -0.588657 -0.795917 -0.141421
vn -0.662406 -0.735676 -0.141421
vn -0.714700 -0.684985 -0.141421
vn -0.800886 -0.581878 -0.141421
vn -0.820183 -0.554347 -0.141421
vn -0.904364 -0.402649 -0.141421
vn -0.902070 -0.407761 -0.141421
vn -0.958007 -0.249446 -0.141421
vn -0.968317 -0.205822 -0.141421
vn -0.986383 -0.083954 -0.141421
vn -0.989949 -0.000000 -0.141421
vn -0.986383 0.083954 -0.141421
vn -0.968317 0.205822 -0.141421
vn -0.958007 0.249446 -0.141421
vn -0.904364 0.402649 -0.141421
vn -0.902070 0.407761 -0.141421
vn -0.820183 0.554347 -0.141421
vn -0.800886 0.581878 -0.141421
vn -0.714700 0.684985 -0.141421
vn -0.662406 0.735676 -0.141421
vn -0.588657 0.795917 -0.141421
vn -0.494975 0.857321 -0.141421
vn -0.445679 0.883952 -0.141421
vn -0.305911 0.941498 -0.141421
vn -0.289880 0.946557 -0.141421
vn -0.125741 0.981931 -0.141421
vn -0.103478 0.984526 -0.141421
vn 0.042015 0.989058 -0.141421
vn 0.103478 0.984526 -0.141421
vn 0.208562 0.967730 -0.141421
vn 0.305911 0.941498 -0.141421
vn 0.369109 0.918563 -0.141421
vn 0.494975 0.857321 -0.141421
vn 0.519038 0.842971 -0.141421
vn 0.662406 0.735676 -0.141421
vn 0.654035 0.743128 -0.141421
vn 0.770216 0.621906 -0.141421
vn 0.800886 0.581878 -0.141421
vn 0.864240 0.482793 -0.141421
vn 0.904364 0.402649 -0.141421
vn 0.933401 0.329792 -0.141421
vn 0.968317 0.205822 -0.141421
usemtl Steel_-_Satin
f 29/1/1 1/2/2 11/3/3
f 11/3/3 1/2/2 2/4/4
f 11/3/3 2/4/4 3/5/5
f 3/5/5 4/6/6 11/3/3
f 11/3/3 4/6/6 5/7/7
f 11/3/3 5/7/7 6/8/8
f 11/3/3 6/8/8 10/9/9
f 10/9/9 6/8/8 7/10/10
f 10/9/9 7/10/10 9/11/11
f 9/11/11 7/10/10 8/12/12
f 12/13/13 20/14/14 11/3/3
f 11/3/3 20/14/14 21/15/15
f 11/3/3 21/15/15 22/16/16
f 20/14/14 12/13/13 19/17/17
f 19/17/17 12/13/13 13/18/18
f 19/17/17 13/18/18 18/19/19
f 18/19/19 13/18/18 14/20/20
f 18/19/19 14/20/20 17/21/21
f 17/21/21 14/20/20 15/22/22
f 17/21/21 15/22/22 16/23/23
f 22/16/16 23/24/24 11/3/3
f 11/3/3 23/24/24 24/25/25
f 11/3/3 24/25/25 25/26/26
f 25/26/26 26/27/27 11/3/3
f 11/3/3 26/27/27 27/28/28
f 11/3/3 27/28/28 28/29/29
f 28/29/29 29/1/1 11/3/3
f 29/30/30 58/31/31 1/32/32
f 1/32/32 58/31/31 30/33/33
f 1/34/32 30/35/33 2/36/34
f 2/36/34 30/35/33 31/37/35
f 2/36/34 31/37/35 3/38/36
f 3/38/36 31/37/35 32/39/37
f 3/38/36 32/39/37 4/40/38
f 4/40/38 32/39/37 33/41/39
f 4/40/38 33/41/39 5/42/40
f 5/42/40 33/41/39 34/43/41
f 5/42/40 34/43/41 6/44/42
f 6/44/42 34/43/41 35/45/43
f 6/44/42 35/45/43 7/46/44
f 7/46/44 35/45/43 36/47/45
f 7/46/44 36/47/45 8/48/46
f 8/48/46 36/47/45 37/49/47
f 8/48/46 37/49/47 9/50/48
f 9/50/48 37/49/47 38/51/49
f 9/50/48 38/51/49 10/52/50
f 10/52/50 38/51/49 39/53/51
f 10/52/50 39/53/51 11/54/52
f 11/54/52 39/53/51 40/55/53
f 11/54/52 40/55/53 12/56/54
f 12/56/54 40/55/53 41/57/55
f 12/56/54 41/57/55 13/58/56
f 13/58/56 41/57/55 42/59/57
f 13/58/56 42/59/57 14/60/58
f 14/60/58 42/59/57 43/61/59
f 14/60/58 43/61/59 15/62/60
f 15/62/60 43/61/59 44/63/61
f 15/62/60 44/63/61 16/64/62
f 16/64/62 44/63/61 45/65/63
f 16/64/62 45/65/63 17/66/64
f 17/66/64 45/65/63 46/67/65
f 17/66/64 46/67/65 18/68/66
f 18/68/66 46/67/65 47/69/67
f 18/68/66 47/69/67 19/70/68
f 19/70/68 47/69/67 48/71/69
f 19/70/68 48/71/69 20/72/70
f 20/72/70 48/71/69 49/73/71
f 20/72/70 49/73/71 21/74/72
f 21/74/72 49/73/71 50/75/73
f 21/74/72 50/75/73 22/76/74
f 22/76/74 50/75/73 51/77/75
f 22/76/74 51/77/75 23/78/76
f 23/78/76 51/77/75 52/79/77
f 23/78/76 52/79/77 24/80/78
f 24/80/78 52/79/77 53/81/79
f 24/80/78 53/81/79 25/82/80
f 25/82/80 53/81/79 54/83/81
f 25/82/80 54/83/81 26/84/82
f 26/84/82 54/83/81 55/85/83
f 26/84/82 55/85/83 27/86/84
f 27/86/84 55/85/83 56/87/85
f 27/86/84 56/87/85 28/88/86
f 28/88/86 56/87/85 57/89/87
f 28/88/86 57/89/87 29/30/30
f 29/30/30 57/89/87 58/31/31
f 60/90/88 116/91/89 59/92/90
f 59/92/90 116/91/89 88/93/91
f 59/94/90 88/95/91 87/96/92
f 87/96/92 88/95/91 89/97/93
f 87/96/92 89/97/93 90/98/94
f 60/90/88 61/99/95 116/91/89
f 116/91/89 61/99/95 115/100/96
f 115/100/96 61/99/95 62/101/97
f 115/100/96 62/101/97 114/102/98
f 114/102/98 62/101/97 63/103/99
f 114/102/98 63/103/99 113/104/100
f 113/104/100 63/103/99 64/105/101
f 113/104/100 64/105/101 112/106/102
f 112/106/102 64/105/101 65/107/103
f 112/106/102 65/107/103 111/108/104
f 111/108/104 65/107/103 66/109/105
f 111/108/104 66/109/105 110/110/106
f 110/110/106 66/109/105 67/111/107
f 110/110/106 67/111/107 109/112/108
f 109/112/108 67/111/107 68/113/109
f 109/112/108 68/113/109 108/114/110
f 108/114/110 68/113/109 69/115/111
f 108/114/110 69/115/111 107/116/112
f 107/116/112 69/115/111 70/117/113
f 107/116/112 70/117/113 106/118/114
f 106/118/114 70/117/113 71/119/115
f 106/118/114 71/119/115 105/120/116
f 105/120/116 71/119/115 72/121/117
f 105/120/116 72/121/117 104/122/118
f 104/122/118 72/121/117 73/123/119
f 104/122/118 73/123/119 103/124/120
f 103/124/120 73/123/119 74/125/121
f 103/124/120 74/125/121 102/126/122
f 102/126/122 74/125/121 75/127/123
f 102/126/122 75/127/123 101/128/124
f 101/128/124 75/127/123 76/129/125
f 101/128/124 76/129/125 100/130/126
f 100/130/126 76/129/125 77/131/127
f 100/130/126 77/131/127 99/132/128
f 99/132/128 77/131/127 78/133/129
f 99/132/128 78/133/129 98/134/130
f 98/134/130 78/133/129 79/135/131
f 98/134/130 79/135/131 97/136/132
f 97/136/132 79/135/131 80/137/133
f 97/136/132 80/137/133 96/138/134
f 96/138/134 80/137/133 81/139/135
f 96/138/134 81/139/135 95/140/136
f 95/140/136 81/139/135 82/141/137
f 95/140/136 82/141/137 94/142/138
f 94/142/138 82/141/137 83/143/139
f 94/142/138 83/143/139 93/144/140
f 93/144/140 83/143/139 84/145/141
f 93/144/140 84/145/141 92/146/142
f 92/146/142 84/145/141 85/147/143
f 92/146/142 85/147/143 91/148/144
f 91/148/144 85/147/143 86/149/145
f 91/148/144 86/149/145 90/98/94
f 90/98/94 86/149/145 87/96/92
f 60/150/146 59/151/147 69/152/148
f 69/152/148 59/151/147 87/153/149
f 69/152/148 87/153/149 86/154/150
f 86/154/150 85/155/151 69/152/148
f 69/152/148 85/155/151 84/156/152
f 69/152/148 84/156/152 83/157/153
f 83/157/153 82/158/154 69/152/148
f 69/152/148 82/158/154 81/159/155
f 69/152/148 81/159/155 80/160/156
f 80/160/156 79/161/157 69/152/148
f 69/152/148 79/161/157 78/162/158
f 69/152/148 78/162/158 70/163/159
f 70/163/159 78/162/158 77/164/160
f 70/163/159 77/164/160 71/165/161
f 71/165/161 77/164/160 76/166/162
f 71/165/161 76/166/162 72/167/163
f 72/167/163 76/166/162 75/168/164
f 72/167/163 75/168/164 73/169/165
f 73/169/165 75/168/164 74/170/166
f 68/171/167 64/172/168 69/152/148
f 69/152/148 64/172/168 63/173/169
f 69/152/148 63/173/169 62/174/170
f 64/172/168 68/171/167 65/175/171
f 65/175/171 68/171/167 67/176/172
f 65/175/171 67/176/172 66/177/173
f 62/174/170 61/178/174 69/152/148
f 69/152/148 61/178/174 60/150/146
f 151/179/175 117/180/176 88/181/177
f 88/182/177 117/183/176 118/184/178
f 88/182/177 118/184/178 89/185/179
f 89/185/179 118/184/178 119/186/180
f 89/185/179 119/186/180 90/187/181
f 90/187/181 119/186/180 120/188/182
f 90/187/181 120/188/182 91/189/183
f 91/189/183 120/188/182 121/190/184
f 91/189/183 121/190/184 92/191/185
f 92/191/185 121/190/184 122/192/186
f 92/191/185 122/192/186 93/193/187
f 93/193/187 122/192/186 123/194/188
f 93/193/187 123/194/188 124/195/189
f 93/193/187 124/195/189 94/196/190
f 94/196/190 124/195/189 125/197/191
f 94/196/190 125/197/191 95/198/192
f 95/198/192 125/197/191 126/199/193
f 95/198/192 126/199/193 96/200/194
f 96/200/194 126/199/193 127/201/195
f 96/200/194 127/201/195 97/202/196
f 97/202/196 127/201/195 128/203/197
f 97/202/196 128/203/197 98/204/198
f 98/204/198 128/203/197 129/205/199
f 98/204/198 129/205/199 130/206/200
f 98/204/198 130/206/200 99/207/201
f 99/207/201 130/206/200 131/208/202
f 99/207/201 131/208/202 100/209/203
f 100/209/203 131/208/202 132/210/204
f 100/209/203 132/210/204 101/211/205
f 101/211/205 132/210/204 133/212/206
f 101/211/205 133/212/206 102/213/207
f 102/213/207 133/212/206 134/214/208
f 102/213/207 134/214/208 135/215/209
f 102/213/207 135/215/209 103/216/210
f 103/216/210 135/215/209 136/217/211
f 103/216/210 136/217/211 104/218/212
f 104/218/212 136/217/211 137/219/213
f 104/218/212 137/219/213 105/220/214
f 105/220/214 137/219/213 138/221/215
f 105/220/214 138/221/215 106/222/216
f 106/222/216 138/221/215 139/223/217
f 106/222/216 139/223/217 107/224/218
f 107/224/218 139/223/217 140/225/219
f 107/224/218 140/225/219 141/226/220
f 107/224/218 141/226/220 108/227/221
f 108/227/221 141/226/220 142/228/222
f 108/227/221 142/228/222 109/229/223
f 109/229/223 142/228/222 143/230/224
f 109/229/223 143/230/224 110/231/225
f 110/231/225 143/230/224 144/232/226
f 110/231/225 144/232/226 111/233/227
f 111/233/227 144/232/226 145/234/228
f 111/233/227 145/234/228 112/235/229
f 112/235/229 145/234/228 146/236/230
f 112/235/229 146/236/230 147/237/231
f 112/235/229 147/237/231 113/238/232
f 113/238/232 147/237/231 148/239/233
f 113/238/232 148/239/233 114/240/234
f 114/240/234 148/239/233 149/241/235
f 114/240/234 149/241/235 115/242/236
f 115/242/236 149/241/235 150/243/237
f 115/242/236 150/243/237 116/244/238
f 116/244/238 150/243/237 151/179/175
f 116/244/238 151/179/175 88/181/177
f 153/245/239 196/246/240 152/247/241
f 152/247/241 196/246/240 197/248/242
f 152/249/241 197/250/242 181/251/243
f 181/251/243 197/250/242 198/252/244
f 181/251/243 198/252/244 180/253/245
f 180/253/245 198/252/244 199/254/246
f 180/253/245 199/254/246 179/255/247
f 179/255/247 199/254/246 200/256/248
f 179/255/247 200/256/248 178/257/249
f 178/257/249 200/256/248 201/258/250
f 178/257/249 201/258/250 177/259/251
f 177/259/251 201/258/250 202/260/252
f 177/259/251 202/260/252 176/261/253
f 176/261/253 202/260/252 203/262/254
f 176/261/253 203/262/254 175/263/255
f 175/263/255 203/262/254 204/264/256
f 175/263/255 204/264/256 174/265/257
f 174/265/257 204/264/256 205/266/258
f 174/265/257 205/266/258 173/267/259
f 173/267/259 205/266/258 206/268/260
f 173/267/259 206/268/260 172/269/261
f 172/269/261 206/268/260 207/270/262
f 172/269/261 207/270/262 171/271/263
f 171/271/263 207/270/262 208/272/264
f 171/271/263 208/272/264 170/273/265
f 170/273/265 208/272/264 209/274/266
f 170/273/265 209/274/266 169/275/267
f 169/275/267 209/274/266 210/276/268
f 169/275/267 210/276/268 168/277/269
f 168/277/269 210/276/268 211/278/270
f 168/277/269 211/278/270 167/279/271
f 167/279/271 211/278/270 182/280/272
f 167/279/271 182/280/272 166/281/273
f 166/281/273 182/280/272 183/282/274
f 166/281/273 183/282/274 165/283/275
f 165/283/275 183/282/274 184/284/276
f 165/283/275 184/284/276 164/285/277
f 164/285/277 184/284/276 185/286/278
f 164/285/277 185/286/278 163/287/279
f 163/287/279 185/286/278 186/288/280
f 163/287/279 186/288/280 162/289/281
f 162/289/281 186/288/280 187/290/282
f 162/289/281 187/290/282 161/291/283
f 161/291/283 187/290/282 188/292/284
f 161/291/283 188/292/284 160/293/285
f 160/293/285 188/292/284 189/294/286
f 160/293/285 189/294/286 159/295/287
f 159/295/287 189/294/286 190/296/288
f 159/295/287 190/296/288 158/297/289
f 158/297/289 190/296/288 191/298/290
f 158/297/289 191/298/290 157/299/291
f 157/299/291 191/298/290 192/300/292
f 157/299/291 192/300/292 156/301/293
f 156/301/293 192/300/292 193/302/294
f 156/301/293 193/302/294 155/303/295
f 155/303/295 193/302/294 194/304/296
f 155/303/295 194/304/296 154/305/297
f 154/305/297 194/304/296 195/306/298
f 154/305/297 195/306/298 153/245/239
f 153/245/239 195/306/298 196/246/240
f 58/307/299 153/308/300 30/309/301
f 30/309/301 153/308/300 152/310/302
f 30/309/301 152/310/302 181/311/303
f 153/308/300 58/307/299 154/312/304
f 154/312/304 58/307/299 57/313/305
f 154/312/304 57/313/305 155/314/306
f 155/314/306 57/313/305 56/315/307
f 155/314/306 56/315/307 156/316/308
f 156/316/308 56/315/307 55/317/309
f 156/316/308 55/317/309 157/318/310
f 157/318/310 55/317/309 54/319/311
f 157/318/310 54/319/311 158/320/312
f 158/320/312 54/319/311 53/321/313
f 158/320/312 53/321/313 159/322/314
f 159/322/314 53/321/313 52/323/315
f 159/322/314 52/323/315 160/324/316
f 160/324/316 52/323/315 51/325/317
f 160/324/316 51/325/317 161/326/318
f 161/326/318 51/325/317 50/327/319
f 161/326/318 50/327/319 162/328/320
f 162/328/320 50/327/319 49/329/321
f 162/328/320 49/329/321 163/330/322
f 163/330/322 49/329/321 48/331/323
f 163/330/322 48/331/323 164/332/324
f 164/332/324 48/331/323 47/333/325
f 164/332/324 47/333/325 165/334/326
f 165/334/326 47/333/325 46/335/327
f 165/334/326 46/335/327 166/336/328
f 166/336/328 46/335/327 45/337/329
f 166/336/328 45/337/329 167/338/330
f 167/338/330 45/337/329 44/339/331
f 167/338/330 44/339/331 168/340/332
f 168/340/332 44/339/331 43/341/333
f 168/340/332 43/341/333 169/342/334
f 169/342/334 43/341/333 42/343/335
f 169/342/334 42/343/335 170/344/336
f 170/344/336 42/343/335 41/345/337
f 170/344/336 41/345/337 171/346/338
f 171/346/338 41/345/337 40/347/339
f 171/346/338 40/347/339 172/348/340
f 172/348/340 40/347/339 39/349/341
f 172/348/340 39/349/341 173/350/342
f 173/350/342 39/349/341 38/351/343
f 173/350/342 38/351/343 174/352/344
f 174/352/344 38/351/343 37/353/345
f 174/352/344 37/353/345 175/354/346
f 175/354/346 37/353/345 36/355/347
f 175/354/346 36/355/347 176/356/348
f 176/356/348 36/355/347 35/357/349
f 176/356/348 35/357/349 177/358/350
f 177/358/350 35/357/349 34/359/351
f 177/358/350 34/359/351 178/360/352
f 178/360/352 34/359/351 33/361/353
f 178/360/352 33/361/353 179/362/354
f 179/362/354 33/361/353 32/363/355
f 179/362/354 32/363/355 180/364/356
f 180/364/356 32/363/355 31/365/357
f 180/364/356 31/365/357 181/311/303
f 181/311/303 31/365/357 30/309/301
f 151/366/358 230/367/359 117/368/360
f 117/368/360 230/367/359 231/369/361
f 117/368/360 231/369/361 118/370/362
f 118/370/362 231/369/361 232/371/363
f 118/370/362 232/371/363 119/372/364
f 119/372/364 232/371/363 233/373/365
f 119/372/364 233/373/365 120/374/366
f 120/374/366 233/373/365 234/375/367
f 120/374/366 234/375/367 121/376/368
f 121/376/368 234/375/367 235/377/369
f 121/376/368 235/377/369 122/378/370
f 122/378/370 235/377/369 236/379/371
f 122/378/370 236/379/371 123/380/372
f 123/380/372 236/379/371 237/381/373
f 123/380/372 237/381/373 124/382/374
f 124/382/374 237/381/373 238/383/375
f 124/382/374 238/383/375 125/384/376
f 125/384/376 238/383/375 239/385/377
f 125/384/376 239/385/377 126/386/378
f 126/386/378 239/385/377 240/387/379
f 126/386/378 240/387/379 241/388/380
f 230/367/359 151/366/358 229/389/381
f 229/389/381 151/366/358 150/390/382
f 229/389/381 150/390/382 228/391/383
f 228/391/383 150/390/382 149/392/384
f 228/391/383 149/392/384 227/393/385
f 227/393/385 149/392/384 148/394/386
f 227/393/385 148/394/386 226/395/387
f 226/395/387 148/394/386 147/396/388
f 226/395/387 147/396/388 225/397/389
f 225/397/389 147/396/388 146/398/390
f 225/397/389 146/398/390 224/399/391
f 224/399/391 146/398/390 145/400/392
f 224/399/391 145/400/392 223/401/393
f 223/401/393 145/400/392 144/402/394
f 223/401/393 144/402/394 222/403/395
f 222/403/395 144/402/394 143/404/396
f 222/403/395 143/404/396 221/405/397
f 221/405/397 143/404/396 220/406/398
f 220/406/398 143/404/396 142/407/399
f 220/406/398 142/407/399 219/408/400
f 219/408/400 142/407/399 141/409/401
f 219/408/400 141/409/401 218/410/402
f 218/410/402 141/409/401 140/411/403
f 218/410/402 140/411/403 217/412/404
f 217/412/404 140/411/403 139/413/405
f 217/412/404 139/413/405 216/414/406
f 216/414/406 139/413/405 138/415/407
f 216/414/406 138/415/407 215/416/408
f 215/416/408 138/415/407 137/417/409
f 215/416/408 137/417/409 214/418/410
f 214/418/410 137/417/409 136/419/411
f 214/418/410 136/419/411 213/420/412
f 213/420/412 136/419/411 135/421/413
f 213/420/412 135/421/413 212/422/414
f 212/422/414 135/421/413 134/423/415
f 212/422/414 134/423/415 248/424/416
f 248/424/416 134/423/415 133/425/417
f 248/424/416 133/425/417 247/426/418
f 247/426/418 133/425/417 132/427/419
f 247/426/418 132/427/419 246/428/420
f 246/428/420 132/427/419 131/429/421
f 246/428/420 131/429/421 245/430/422
f 245/430/422 131/429/421 130/431/423
f 245/430/422 130/431/423 244/432/424
f 244/432/424 130/431/423 129/433/425
f 244/432/424 129/433/425 243/434/426
f 243/434/426 129/433/425 128/435/427
f 243/434/426 128/435/427 242/436/428
f 242/436/428 128/435/427 127/437/429
f 242/436/428 127/437/429 241/388/380
f 241/388/380 127/437/429 126/386/378
f 213/438/430 212/439/431 182/440/432
f 182/440/432 212/439/431 248/441/433
f 182/440/432 248/441/433 183/442/434
f 183/442/434 248/441/433 247/443/435
f 183/442/434 247/443/435 184/444/436
f 184/444/436 247/443/435 246/445/437
f 184/444/436 246/445/437 185/446/438
f 185/446/438 246/445/437 245/447/439
f 185/446/438 245/447/439 186/448/440
f 186/448/440 245/447/439 244/449/441
f 186/448/440 244/449/441 243/450/442
f 186/448/440 243/450/442 187/451/443
f 187/451/443 243/450/442 242/452/444
f 187/451/443 242/452/444 188/453/445
f 188/453/445 242/452/444 241/454/446
f 188/453/445 241/454/446 189/455/447
f 189/455/447 241/454/446 240/456/448
f 189/455/447 240/456/448 190/457/449
f 190/457/449 240/456/448 239/458/450
f 190/457/449 239/458/450 191/459/451
f 191/459/451 239/458/450 238/460/452
f 191/459/451 238/460/452 237/461/453
f 191/459/451 237/461/453 192/462/454
f 192/462/454 237/461/453 236/463/455
f 192/462/454 236/463/455 193/464/456
f 193/464/456 236/463/455 235/465/457
f 193/464/456 235/465/457 194/466/458
f 194/466/458 235/465/457 234/467/459
f 194/466/458 234/467/459 195/468/460
f 195/468/460 234/467/459 233/469/461
f 195/468/460 233/469/461 232/470/462
f 195/468/460 232/470/462 196/471/463
f 196/471/463 232/470/462 231/472/464
f 196/471/463 231/472/464 197/473/465
f 197/474/465 231/475/464 230/476/466
f 197/474/465 230/476/466 198/477/467
f 198/477/467 230/476/466 229/478/468
f 198/477/467 229/478/468 199/479/469
f 199/479/469 229/478/468 228/480/470
f 199/479/469 228/480/470 227/481/471
f 199/479/469 227/481/471 200/482/472
f 200/482/472 227/481/471 226/483/473
f 200/482/472 226/483/473 201/484/474
f 201/484/474 226/483/473 225/485/475
f 201/484/474 225/485/475 202/486/476
f 202/486/476 225/485/475 224/487/477
f 202/486/476 224/487/477 203/488/478
f 203/488/478 224/487/477 223/489/479
f 203/488/478 223/489/479 222/490/480
f 203/488/478 222/490/480 204/491/481
f 204/491/481 222/490/480 221/492/482
f 204/491/481 221/492/482 205/493/483
f 205/493/483 221/492/482 220/494/484
f 205/493/483 220/494/484 206/495/485
f 206/495/485 220/494/484 219/496/486
f 206/495/485 219/496/486 207/497/487
f 207/497/487 219/496/486 218/498/488
f 207/497/487 218/498/488 208/499/489
f 208/499/489 218/498/488 217/500/490
f 208/499/489 217/500/490 216/501/491
f 208/499/489 216/501/491 209/502/492
f 209/502/492 216/501/491 215/503/493
f 209/502/492 215/503/493 210/504/494
f 210/504/494 215/503/493 214/505/495
f 210/504/494 214/505/495 211/506/496
f 211/506/496 214/505/495 213/438/430
f 211/506/496 213/438/430 182/440/432
# 248 vertices
# 506 texture params
# 496 normals
# 492 facets

# 1 groups
